<?xml version="1.0" encoding="iso-8859-1"?>
<!-- Generator: Adobe Illustrator 22.0.1, SVG Export Plug-In . SVG Version: 6.00 Build 0)  -->
<svg version="1.1" id="Layer_1_1_" xmlns="http://www.w3.org/2000/svg" xmlns:xlink="http://www.w3.org/1999/xlink" x="0px" y="0px"
	 viewBox="0 0 64 64" style="enable-background:new 0 0 64 64;" xml:space="preserve">
<g id="Guide">
</g>
<path fill="#fff" d="M47,20.414L57.468,9.946C57.644,9.97,57.818,10,58,10c2.206,0,4-1.794,4-4s-1.794-4-4-4s-4,1.794-4,4
	c0,1.252,0.59,2.358,1.494,3.092l-8.914,8.914C45.807,16.24,44.048,15,42,15h-2.339l5.763-5.043C47.429,9.742,49,8.06,49,6
	c0-2.206-1.794-4-4-4s-4,1.794-4,4c0,1.468,0.803,2.739,1.984,3.435L36.625,15H33V9.858c1.721-0.447,3-2,3-3.858
	c0-2.206-1.794-4-4-4s-4,1.794-4,4c0,1.858,1.279,3.411,3,3.858V15h-3.625l-6.36-5.565C22.197,8.739,23,7.468,23,6
	c0-2.206-1.794-4-4-4s-4,1.794-4,4c0,2.06,1.571,3.742,3.576,3.957L24.339,15H22c-2.048,0-3.807,1.24-4.58,3.006L8.506,9.092
	C9.41,8.358,10,7.252,10,6c0-2.206-1.794-4-4-4S2,3.794,2,6s1.794,4,4,4c0.182,0,0.356-0.03,0.532-0.054L17,20.414v4.339
	l-7.086-1.575C9.534,21.366,7.924,20,6,20c-2.206,0-4,1.794-4,4s1.794,4,4,4c1.785,0,3.282-1.182,3.795-2.799L17,26.802V35H9.858
	C9.411,33.28,7.859,32,6,32c-2.206,0-4,1.794-4,4s1.794,4,4,4c1.859,0,3.411-1.28,3.858-3H17v15c0,2.757,2.243,5,5,5h5v5h2v-5h12
	c0.404,0,0.77-0.244,0.924-0.617c0.155-0.374,0.069-0.804-0.217-1.09L39,52.586V47c0-0.265-0.105-0.52-0.293-0.707l-3.382-3.381
	c-0.002-0.002-0.004-0.005-0.006-0.008l-0.784-0.782C34.19,41.776,34,41.317,34,40.829C34,39.82,34.82,39,35.828,39
	c0.481,0,0.952,0.195,1.293,0.536l8.172,8.171c0.286,0.287,0.716,0.372,1.09,0.217S47,47.404,47,47v-5.586l3,3V62h2V44
	c0-0.265-0.105-0.52-0.293-0.707L47,38.586V37h7.142c0.447,1.72,1.999,3,3.858,3c2.206,0,4-1.794,4-4s-1.794-4-4-4
	c-1.859,0-3.411,1.28-3.858,3H47v-8.198l7.205-1.601C54.718,26.818,56.215,28,58,28c2.206,0,4-1.794,4-4s-1.794-4-4-4
	c-1.924,0-3.534,1.366-3.914,3.179L47,24.754V20.414z M58,4c1.103,0,2,0.897,2,2s-0.897,2-2,2s-2-0.897-2-2S56.897,4,58,4z M45,4
	c1.103,0,2,0.897,2,2s-0.897,2-2,2s-2-0.897-2-2S43.897,4,45,4z M30,6c0-1.103,0.897-2,2-2s2,0.897,2,2s-0.897,2-2,2S30,7.103,30,6z
	 M17,6c0-1.103,0.897-2,2-2s2,0.897,2,2s-0.897,2-2,2S17,7.103,17,6z M4,6c0-1.103,0.897-2,2-2s2,0.897,2,2S7.103,8,6,8S4,7.103,4,6
	z M6,26c-1.103,0-2-0.897-2-2s0.897-2,2-2s2,0.897,2,2S7.103,26,6,26z M6,38c-1.103,0-2-0.897-2-2s0.897-2,2-2s2,0.897,2,2
	S7.103,38,6,38z M58,34c1.103,0,2,0.897,2,2s-0.897,2-2,2s-2-0.897-2-2S56.897,34,58,34z M58,22c1.103,0,2,0.897,2,2s-0.897,2-2,2
	s-2-0.897-2-2S56.897,22,58,22z M22,17h20c1.654,0,3,1.346,3,3v1H19v-1C19,18.346,20.346,17,22,17z M28,55h-6c-1.654,0-3-1.346-3-3
	v-1h18v2c0,0.265,0.105,0.52,0.293,0.707L38.586,55H28z M35.828,37C33.718,37,32,38.717,32,40.829c0,0.231,0.027,0.457,0.066,0.679
	c0.012,0.067,0.029,0.131,0.045,0.197c0.038,0.161,0.085,0.317,0.143,0.471c0.024,0.064,0.047,0.128,0.074,0.19
	c0.083,0.189,0.179,0.371,0.292,0.545c0.01,0.015,0.017,0.031,0.027,0.046c0.003,0.005,0.006,0.011,0.009,0.016
	C32.438,42.991,32.219,43,32,43c-4.411,0-8-3.589-8-8s3.589-8,8-8s8,3.589,8,8c0,1.294-0.31,2.547-0.904,3.682l-0.561-0.56
	C37.812,37.398,36.852,37,35.828,37z M45,44.586l-4.439-4.438C41.504,38.591,42,36.829,42,35c0-5.514-4.486-10-10-10
	s-10,4.486-10,10s4.486,10,10,10c0.773,0,1.538-0.116,2.292-0.294L37,47.414V49H19V23h26v16V44.586z"/>
<path fill="#fff" d="M30,36.086l-2.293-2.293l-1.414,1.414l3,3C29.488,38.402,29.744,38.5,30,38.5s0.512-0.098,0.707-0.293l6.5-6.5l-1.414-1.414
	L30,36.086z"/>
<rect x="21" y="45" width="2" height="2"/>
<rect x="21" y="41" width="2" height="2"/>
<rect x="25" y="45" width="2" height="2"/>
</svg>
